M48
;Layer_Color=9474304
;FILE_FORMAT=4:4
METRIC,LZ
;TYPE=PLATED
T01F00S00C0.7000
T02F00S00C0.7500
T03F00S00C0.8000
T04F00S00C0.8500
T05F00S00C0.9000
T06F00S00C1.0000
T07F00S00C1.0200
T08F00S00C1.0500
T09F00S00C1.2900
T10F00S00C1.3000
T11F00S00C3.2000
;TYPE=NON_PLATED
T12F00S00C1.3000
%
T01
X0043465Y0045259
Y0047259
X0054006Y0046624
Y0044624
X0056562Y0079152
X0058562
X004791
X004591
T02
X0033021Y00543
X0035621Y00593
T03
X0093599Y0031663
Y0034163
X0092456Y0041696
Y0044196
T04
X0100457Y0030679
X0104902Y0030552
X0108458Y0030878
X0112522Y0030933
X0116586Y0031187
X0104902Y0039552
X0100457Y0039679
X0121285Y003106
Y004006
X0116586Y0040187
X0112522Y0039933
X0108458Y0039878
X0092075Y0050618
X0087249Y0050491
Y0059491
Y0063191
X0091948Y0063318
X0092075Y0059618
X0091948Y0072318
X0092075Y007678
X0087122Y0076907
X0087249Y0072191
X0087122Y0085907
X0092075Y008578
T05
X00441Y0053244
X004664
X004918
X005172
X0057562Y0053309
X0065309Y0053436
Y0064736
X0057562Y0064609
X005172Y0060864
X004918
X004664
X00441
X0078613Y0062016
Y0059516
Y0057016
Y0054516
Y0064516
Y0067016
X0035591Y006696
X0032091
X0048712Y0088804
X0051212
X0053712
T06
X0088773Y0091814
Y0094314
Y0096814
Y0099314
T07
X0122682Y0051933
Y0054473
Y0057013
Y0059553
Y0062093
Y0064633
Y0067173
Y0069713
Y0072253
Y0074793
Y0077333
X0097282
Y0074793
Y0072253
Y0069713
Y0067173
Y0064633
Y0062093
Y0059553
Y0057013
Y0054473
Y0051933
Y0079873
Y0082413
Y0084953
Y0087493
Y0090033
Y0092573
Y0095113
Y0097653
X0122682
Y0095113
Y0092573
Y0090033
Y0087493
Y0084953
Y0082413
Y0079873
T08
X0046858Y003194
X0049358
X0079502Y003302
Y003552
T09
X0085852Y0033274
Y0035814
Y0038354
X006696Y0072929
X006442
X006188
X0049688Y0072421
X0047148
X0044608
T10
X0031273Y0039147
X00639395Y0039391
Y0041941
Y0044491
X0031273Y0044247
Y0041697
T11
X0030765Y0030765
X0067595Y0030638
X0121158Y0047879
X0077374Y0044862
X0078517Y0104171
X0040163Y0088931
T12
X0050958Y003394
X0077502Y003712
M30
