G04*
G04 #@! TF.GenerationSoftware,Altium Limited,Altium Designer,23.8.1 (32)*
G04*
G04 Layer_Color=16711935*
%FSLAX44Y44*%
%MOMM*%
G71*
G04*
G04 #@! TF.SameCoordinates,791A3C29-9ABF-4AEA-8B0B-0D467164B87E*
G04*
G04*
G04 #@! TF.FilePolarity,Negative*
G04*
G01*
G75*
%ADD14R,1.5000X1.5000*%
%ADD15C,1.5000*%
%ADD16R,1.2800X1.2800*%
%ADD17C,1.2800*%
%ADD18C,3.6500*%
%ADD19C,1.4000*%
%ADD20R,1.4000X1.4000*%
%ADD21R,1.3620X3.1400*%
G04:AMPARAMS|DCode=22|XSize=1.362mm|YSize=3.14mm|CornerRadius=0.681mm|HoleSize=0mm|Usage=FLASHONLY|Rotation=90.000|XOffset=0mm|YOffset=0mm|HoleType=Round|Shape=RoundedRectangle|*
%AMROUNDEDRECTD22*
21,1,1.3620,1.7780,0,0,90.0*
21,1,0.0000,3.1400,0,0,90.0*
1,1,1.3620,0.8890,0.0000*
1,1,1.3620,0.8890,0.0000*
1,1,1.3620,-0.8890,0.0000*
1,1,1.3620,-0.8890,0.0000*
%
%ADD22ROUNDEDRECTD22*%
G04:AMPARAMS|DCode=23|XSize=1.362mm|YSize=3.14mm|CornerRadius=0.681mm|HoleSize=0mm|Usage=FLASHONLY|Rotation=0.000|XOffset=0mm|YOffset=0mm|HoleType=Round|Shape=RoundedRectangle|*
%AMROUNDEDRECTD23*
21,1,1.3620,1.7780,0,0,0.0*
21,1,0.0000,3.1400,0,0,0.0*
1,1,1.3620,0.0000,-0.8890*
1,1,1.3620,0.0000,-0.8890*
1,1,1.3620,0.0000,0.8890*
1,1,1.3620,0.0000,0.8890*
%
%ADD23ROUNDEDRECTD23*%
%ADD24C,1.3500*%
%ADD25R,1.5000X1.5000*%
%ADD26C,1.5200*%
%ADD27R,1.7250X1.7250*%
%ADD28C,1.7250*%
%ADD29C,0.8000*%
%ADD30C,1.5500*%
D14*
X511761Y433571D02*
D03*
X603031Y644391D02*
D03*
X514301Y606291D02*
D03*
X599221Y269741D02*
D03*
X509221Y168141D02*
D03*
X830361Y273551D02*
D03*
X509221Y220211D02*
D03*
X827821Y224021D02*
D03*
X740361Y173221D02*
D03*
X825281Y594861D02*
D03*
X506681Y546601D02*
D03*
X382051Y471671D02*
D03*
X73611Y378961D02*
D03*
X76701Y428491D02*
D03*
X166151Y478021D02*
D03*
X382051Y424681D02*
D03*
X383321Y377691D02*
D03*
X194261Y792981D02*
D03*
X73061Y546601D02*
D03*
X76151Y599941D02*
D03*
X162341Y650741D02*
D03*
X382051Y643121D02*
D03*
X380781Y593591D02*
D03*
Y532631D02*
D03*
X198071Y738371D02*
D03*
X513031Y381501D02*
D03*
X601761Y481831D02*
D03*
X827821Y486911D02*
D03*
X830361Y434841D02*
D03*
X741631Y382771D02*
D03*
X825281Y653281D02*
D03*
X735281Y538981D02*
D03*
X307121Y236721D02*
D03*
X217121Y288791D02*
D03*
X307121Y185921D02*
D03*
X304581Y135121D02*
D03*
X464771Y737101D02*
D03*
X466041Y801871D02*
D03*
X612091Y832351D02*
D03*
D15*
X601761Y433571D02*
D03*
X513031Y644391D02*
D03*
X604301Y606291D02*
D03*
X509221Y269741D02*
D03*
X599221Y168141D02*
D03*
X740361Y273551D02*
D03*
X599221Y220211D02*
D03*
X737821Y224021D02*
D03*
X830361Y173221D02*
D03*
X902201Y822741D02*
D03*
X822191Y820201D02*
D03*
X781551D02*
D03*
X862831Y821471D02*
D03*
X744721D02*
D03*
X735281Y594861D02*
D03*
X596681Y546601D02*
D03*
X292051Y471671D02*
D03*
X163611Y378961D02*
D03*
X166701Y428491D02*
D03*
X76151Y478021D02*
D03*
X292051Y424681D02*
D03*
X293321Y377691D02*
D03*
X284261Y792981D02*
D03*
X163061Y546601D02*
D03*
X166151Y599941D02*
D03*
X72341Y650741D02*
D03*
X292051Y643121D02*
D03*
X290781Y593591D02*
D03*
Y532631D02*
D03*
X288071Y738371D02*
D03*
X603031Y381501D02*
D03*
X511761Y481831D02*
D03*
X737821Y486911D02*
D03*
X740361Y434841D02*
D03*
X831631Y382771D02*
D03*
X735281Y653281D02*
D03*
X825281Y538981D02*
D03*
X217121Y236721D02*
D03*
X307121Y288791D02*
D03*
X217121Y185921D02*
D03*
X214581Y135121D02*
D03*
X554771Y737101D02*
D03*
X556041Y801871D02*
D03*
X702091Y832351D02*
D03*
D16*
X608501Y785361D02*
D03*
X630091Y245611D02*
D03*
X626281Y452621D02*
D03*
X188131Y456431D02*
D03*
Y629151D02*
D03*
X87801Y812031D02*
D03*
X626281Y625341D02*
D03*
X423411Y183381D02*
D03*
X354501Y813301D02*
D03*
D17*
X608501Y759961D02*
D03*
Y734561D02*
D03*
Y709161D02*
D03*
X687901D02*
D03*
Y734561D02*
D03*
Y759961D02*
D03*
Y785361D02*
D03*
X630091Y220211D02*
D03*
Y194811D02*
D03*
Y169411D02*
D03*
X709491D02*
D03*
Y194811D02*
D03*
Y220211D02*
D03*
Y245611D02*
D03*
X626281Y427221D02*
D03*
Y401821D02*
D03*
Y376421D02*
D03*
X705681D02*
D03*
Y401821D02*
D03*
Y427221D02*
D03*
Y452621D02*
D03*
X267531Y456431D02*
D03*
Y431031D02*
D03*
Y405631D02*
D03*
Y380231D02*
D03*
X188131D02*
D03*
Y405631D02*
D03*
Y431031D02*
D03*
X267531Y629151D02*
D03*
Y603751D02*
D03*
Y578351D02*
D03*
Y552951D02*
D03*
X188131D02*
D03*
Y578351D02*
D03*
Y603751D02*
D03*
X167201Y812031D02*
D03*
Y786631D02*
D03*
Y761231D02*
D03*
Y735831D02*
D03*
X87801D02*
D03*
Y761231D02*
D03*
Y786631D02*
D03*
X705681Y625341D02*
D03*
Y599941D02*
D03*
Y574541D02*
D03*
Y549141D02*
D03*
X626281D02*
D03*
Y574541D02*
D03*
Y599941D02*
D03*
X423411Y208781D02*
D03*
Y234181D02*
D03*
Y259581D02*
D03*
X344011D02*
D03*
Y234181D02*
D03*
Y208781D02*
D03*
Y183381D02*
D03*
X354501Y787901D02*
D03*
Y762501D02*
D03*
Y737101D02*
D03*
X433901D02*
D03*
Y762501D02*
D03*
Y787901D02*
D03*
Y813301D02*
D03*
D18*
X947866Y861294D02*
D03*
X932214Y46260D02*
D03*
X250691Y44951D02*
D03*
X33521Y937761D02*
D03*
D19*
X694651Y88131D02*
D03*
X719651D02*
D03*
X744651D02*
D03*
X769651D02*
D03*
X794651D02*
D03*
D20*
X819651D02*
D03*
D21*
X21456Y66668D02*
D03*
X27806Y198748D02*
D03*
D22*
X55712Y21732D02*
D03*
X99248Y118738D02*
D03*
X105598Y250818D02*
D03*
X62062Y153812D02*
D03*
D23*
X131438Y26790D02*
D03*
X137788Y158870D02*
D03*
D24*
X476751Y196081D02*
D03*
Y171081D02*
D03*
X862831Y276961D02*
D03*
Y251961D02*
D03*
X867911Y198621D02*
D03*
Y173621D02*
D03*
X476751Y271881D02*
D03*
Y246881D02*
D03*
X867911Y406501D02*
D03*
Y381501D02*
D03*
Y485641D02*
D03*
Y460641D02*
D03*
X42411Y472541D02*
D03*
Y447541D02*
D03*
Y406501D02*
D03*
Y381501D02*
D03*
X415791Y380631D02*
D03*
Y405631D02*
D03*
X414521Y446671D02*
D03*
Y471671D02*
D03*
X39871Y666851D02*
D03*
Y641851D02*
D03*
X38601Y570331D02*
D03*
Y545331D02*
D03*
X410711Y565251D02*
D03*
Y540251D02*
D03*
X411981Y638911D02*
D03*
Y613911D02*
D03*
X478021Y478891D02*
D03*
Y453891D02*
D03*
Y413251D02*
D03*
Y388251D02*
D03*
X474211Y650741D02*
D03*
Y625741D02*
D03*
Y557161D02*
D03*
Y582161D02*
D03*
X861561Y553351D02*
D03*
Y578351D02*
D03*
X857751Y640581D02*
D03*
Y665581D02*
D03*
D25*
X902201Y732741D02*
D03*
X822191Y730201D02*
D03*
X781551D02*
D03*
X862831Y731471D02*
D03*
X744721D02*
D03*
D26*
X857751Y932681D02*
D03*
X883151D02*
D03*
X908551D02*
D03*
X90671Y922521D02*
D03*
X116071D02*
D03*
X141471D02*
D03*
X298951Y925061D02*
D03*
X273551D02*
D03*
X248151D02*
D03*
X403091Y925161D02*
D03*
X428491D02*
D03*
X453891D02*
D03*
X603751Y931511D02*
D03*
X578351D02*
D03*
X552951D02*
D03*
X707891D02*
D03*
X733291D02*
D03*
X758691D02*
D03*
D27*
X394201Y55111D02*
D03*
D28*
X369201D02*
D03*
D29*
X353201Y35111D02*
D03*
D30*
X44951Y840841D02*
D03*
Y815841D02*
D03*
Y790841D02*
D03*
M02*
