G04*
G04 #@! TF.GenerationSoftware,Altium Limited,Altium Designer,23.8.1 (32)*
G04*
G04 Layer_Color=32768*
%FSLAX44Y44*%
%MOMM*%
G71*
G04*
G04 #@! TF.SameCoordinates,791A3C29-9ABF-4AEA-8B0B-0D467164B87E*
G04*
G04*
G04 #@! TF.FilePolarity,Positive*
G04*
G01*
G75*
%ADD12C,0.1000*%
%ADD44C,0.0500*%
D12*
X556761Y428571D02*
Y438571D01*
X551761Y433571D02*
X561761D01*
X558031Y639391D02*
Y649391D01*
X553031Y644391D02*
X563031D01*
X559301Y601291D02*
Y611291D01*
X554301Y606291D02*
X564301D01*
X549221Y269741D02*
X559221D01*
X554221Y264741D02*
Y274741D01*
X549221Y168141D02*
X559221D01*
X554221Y163141D02*
Y173141D01*
X454251Y153581D02*
X499251D01*
Y213581D01*
X454251D02*
X499251D01*
X454251Y153581D02*
Y213581D01*
X885331Y234461D02*
Y294461D01*
X840331Y234461D02*
X885331D01*
X840331D02*
Y294461D01*
X885331D01*
X890411Y156121D02*
Y216121D01*
X845411Y156121D02*
X890411D01*
X845411D02*
Y216121D01*
X890411D01*
X785361Y268551D02*
Y278551D01*
X780361Y273551D02*
X790361D01*
X549221Y220211D02*
X559221D01*
X554221Y215211D02*
Y225211D01*
X782821Y219021D02*
Y229021D01*
X777821Y224021D02*
X787821D01*
X785361Y168221D02*
Y178221D01*
X780361Y173221D02*
X790361D01*
X454251Y229381D02*
X499251D01*
Y289381D01*
X454251D02*
X499251D01*
X454251Y229381D02*
Y289381D01*
X902201Y772741D02*
Y782741D01*
X897201Y777741D02*
X907201D01*
X817191Y775201D02*
X827191D01*
X822191Y770201D02*
Y780201D01*
X776551Y775201D02*
X786551D01*
X781551Y770201D02*
Y780201D01*
X857831Y776471D02*
X867831D01*
X862831Y771471D02*
Y781471D01*
X739721Y776471D02*
X749721D01*
X744721Y771471D02*
Y781471D01*
X780281Y589861D02*
Y599861D01*
X775281Y594861D02*
X785281D01*
X551681Y541601D02*
Y551601D01*
X546681Y546601D02*
X556681D01*
X890411Y364001D02*
Y424001D01*
X845411Y364001D02*
X890411D01*
X845411D02*
Y424001D01*
X890411D01*
Y443141D02*
Y503141D01*
X845411Y443141D02*
X890411D01*
X845411D02*
Y503141D01*
X890411D01*
X337051Y466671D02*
Y476671D01*
X332051Y471671D02*
X342051D01*
X334701Y11111D02*
X428701D01*
X334701D02*
Y88611D01*
X428701D01*
Y11111D02*
Y88611D01*
X19911Y430041D02*
X64911D01*
Y490041D01*
X19911D02*
X64911D01*
X19911Y430041D02*
Y490041D01*
Y364001D02*
X64911D01*
Y424001D01*
X19911D02*
X64911D01*
X19911Y364001D02*
Y424001D01*
X393291Y423131D02*
X438291D01*
X393291Y363131D02*
Y423131D01*
Y363131D02*
X438291D01*
Y423131D01*
X392021Y489171D02*
X437021D01*
X392021Y429171D02*
Y489171D01*
Y429171D02*
X437021D01*
Y489171D01*
X17371Y624351D02*
X62371D01*
Y684351D01*
X17371D02*
X62371D01*
X17371Y624351D02*
Y684351D01*
X16101Y527831D02*
X61101D01*
Y587831D01*
X16101D02*
X61101D01*
X16101Y527831D02*
Y587831D01*
X433211Y522751D02*
Y582751D01*
X388211Y522751D02*
X433211D01*
X388211D02*
Y582751D01*
X433211D01*
X434481Y596411D02*
Y656411D01*
X389481Y596411D02*
X434481D01*
X389481D02*
Y656411D01*
X434481D01*
X455521Y436391D02*
X500521D01*
Y496391D01*
X455521D02*
X500521D01*
X455521Y436391D02*
Y496391D01*
Y370751D02*
X500521D01*
Y430751D01*
X455521D02*
X500521D01*
X455521Y370751D02*
Y430751D01*
X451711Y608241D02*
X496711D01*
Y668241D01*
X451711D02*
X496711D01*
X451711Y608241D02*
Y668241D01*
Y539661D02*
Y599661D01*
X496711D01*
Y539661D02*
Y599661D01*
X451711Y539661D02*
X496711D01*
X839061Y595851D02*
X884061D01*
X839061Y535851D02*
Y595851D01*
Y535851D02*
X884061D01*
Y595851D01*
X835251Y683081D02*
X880251D01*
X835251Y623081D02*
Y683081D01*
Y623081D02*
X880251D01*
Y683081D01*
X951Y756341D02*
Y875341D01*
X78451D01*
Y756341D02*
Y875341D01*
X951Y756341D02*
X78451D01*
X113611Y378961D02*
X123611D01*
X118611Y373961D02*
Y383961D01*
X116701Y428491D02*
X126701D01*
X121701Y423491D02*
Y433491D01*
X116151Y478021D02*
X126151D01*
X121151Y473021D02*
Y483021D01*
X332051Y424681D02*
X342051D01*
X337051Y419681D02*
Y429681D01*
X333321Y377691D02*
X343321D01*
X338321Y372691D02*
Y382691D01*
X234261Y792981D02*
X244261D01*
X239261Y787981D02*
Y797981D01*
X113061Y546601D02*
X123061D01*
X118061Y541601D02*
Y551601D01*
X116151Y599941D02*
X126151D01*
X121151Y594941D02*
Y604941D01*
X112341Y650741D02*
X122341D01*
X117341Y645741D02*
Y655741D01*
X332051Y643121D02*
X342051D01*
X337051Y638121D02*
Y648121D01*
X330781Y593591D02*
X340781D01*
X335781Y588591D02*
Y598591D01*
X330781Y532631D02*
X340781D01*
X335781Y527631D02*
Y537631D01*
X238071Y738371D02*
X248071D01*
X243071Y733371D02*
Y743371D01*
X553031Y381501D02*
X563031D01*
X558031Y376501D02*
Y386501D01*
X551761Y481831D02*
X561761D01*
X556761Y476831D02*
Y486831D01*
X777821Y486911D02*
X787821D01*
X782821Y481911D02*
Y491911D01*
X780361Y434841D02*
X790361D01*
X785361Y429841D02*
Y439841D01*
X781631Y382771D02*
X791631D01*
X786631Y377771D02*
Y387771D01*
X775281Y653281D02*
X785281D01*
X780281Y648281D02*
Y658281D01*
X775281Y538981D02*
X785281D01*
X780281Y533981D02*
Y543981D01*
X262121Y231721D02*
Y241721D01*
X257121Y236721D02*
X267121D01*
X262121Y283791D02*
Y293791D01*
X257121Y288791D02*
X267121D01*
X262121Y180921D02*
Y190921D01*
X257121Y185921D02*
X267121D01*
X259581Y130121D02*
Y140121D01*
X254581Y135121D02*
X264581D01*
X509771Y732101D02*
Y742101D01*
X504771Y737101D02*
X514771D01*
X511041Y796871D02*
Y806871D01*
X506041Y801871D02*
X516041D01*
X652091Y832351D02*
X662091D01*
X657091Y827351D02*
Y837351D01*
D44*
X609511Y420571D02*
Y446571D01*
X504011D02*
X609511D01*
X504011Y420571D02*
X609511D01*
X504011D02*
Y446571D01*
X598751Y800561D02*
X697651D01*
Y693961D02*
Y800561D01*
X598751Y693961D02*
X697651D01*
X598751D02*
Y800561D01*
X505281Y631391D02*
Y657391D01*
Y631391D02*
X610781D01*
X505281Y657391D02*
X610781D01*
Y631391D02*
Y657391D01*
X612051Y593291D02*
Y619291D01*
X506551D02*
X612051D01*
X506551Y593291D02*
X612051D01*
X506551D02*
Y619291D01*
X606971Y256741D02*
Y282741D01*
X501471D02*
X606971D01*
X501471Y256741D02*
X606971D01*
X501471D02*
Y282741D01*
Y155141D02*
Y181141D01*
Y155141D02*
X606971D01*
X501471Y181141D02*
X606971D01*
Y155141D02*
Y181141D01*
X732611Y260551D02*
Y286551D01*
Y260551D02*
X838111D01*
X732611Y286551D02*
X838111D01*
Y260551D02*
Y286551D01*
X501471Y207211D02*
Y233211D01*
Y207211D02*
X606971D01*
X501471Y233211D02*
X606971D01*
Y207211D02*
Y233211D01*
X620341Y260811D02*
X719241D01*
Y154211D02*
Y260811D01*
X620341Y154211D02*
X719241D01*
X620341D02*
Y260811D01*
X730071Y211021D02*
Y237021D01*
Y211021D02*
X835571D01*
X730071Y237021D02*
X835571D01*
Y211021D02*
Y237021D01*
X838111Y160221D02*
Y186221D01*
X732611D02*
X838111D01*
X732611Y160221D02*
X838111D01*
X732611D02*
Y186221D01*
X889201Y724991D02*
X915201D01*
Y830491D01*
X889201Y724991D02*
Y830491D01*
X915201D01*
X809191Y827951D02*
X835191D01*
X809191Y722451D02*
Y827951D01*
X835191Y722451D02*
Y827951D01*
X809191Y722451D02*
X835191D01*
X768551Y827951D02*
X794551D01*
X768551Y722451D02*
Y827951D01*
X794551Y722451D02*
Y827951D01*
X768551Y722451D02*
X794551D01*
X849831Y829221D02*
X875831D01*
X849831Y723721D02*
Y829221D01*
X875831Y723721D02*
Y829221D01*
X849831Y723721D02*
X875831D01*
X731721Y829221D02*
X757721D01*
X731721Y723721D02*
Y829221D01*
X757721Y723721D02*
Y829221D01*
X731721Y723721D02*
X757721D01*
X727531Y581861D02*
Y607861D01*
Y581861D02*
X833031D01*
X727531Y607861D02*
X833031D01*
Y581861D02*
Y607861D01*
X604431Y533601D02*
Y559601D01*
X498931D02*
X604431D01*
X498931Y533601D02*
X604431D01*
X498931D02*
Y559601D01*
X616531Y467821D02*
X715431D01*
Y361221D02*
Y467821D01*
X616531Y361221D02*
X715431D01*
X616531D02*
Y467821D01*
X284301Y458671D02*
Y484671D01*
Y458671D02*
X389801D01*
X284301Y484671D02*
X389801D01*
Y458671D02*
Y484671D01*
X65861Y365961D02*
Y391961D01*
Y365961D02*
X171361D01*
X65861Y391961D02*
X171361D01*
Y365961D02*
Y391961D01*
X68951Y415491D02*
Y441491D01*
Y415491D02*
X174451D01*
X68951Y441491D02*
X174451D01*
Y415491D02*
Y441491D01*
X173901Y465021D02*
Y491021D01*
X68401D02*
X173901D01*
X68401Y465021D02*
X173901D01*
X68401D02*
Y491021D01*
X389801Y411681D02*
Y437681D01*
X284301D02*
X389801D01*
X284301Y411681D02*
X389801D01*
X284301D02*
Y437681D01*
X391071Y364691D02*
Y390691D01*
X285571D02*
X391071D01*
X285571Y364691D02*
X391071D01*
X285571D02*
Y390691D01*
X186511Y779981D02*
Y805981D01*
Y779981D02*
X292011D01*
X186511Y805981D02*
X292011D01*
Y779981D02*
Y805981D01*
X65311Y533601D02*
Y559601D01*
Y533601D02*
X170811D01*
X65311Y559601D02*
X170811D01*
Y533601D02*
Y559601D01*
X68401Y586941D02*
Y612941D01*
Y586941D02*
X173901D01*
X68401Y612941D02*
X173901D01*
Y586941D02*
Y612941D01*
X170091Y637741D02*
Y663741D01*
X64591D02*
X170091D01*
X64591Y637741D02*
X170091D01*
X64591D02*
Y663741D01*
X389801Y630121D02*
Y656121D01*
X284301D02*
X389801D01*
X284301Y630121D02*
X389801D01*
X284301D02*
Y656121D01*
X388531Y580591D02*
Y606591D01*
X283031D02*
X388531D01*
X283031Y580591D02*
X388531D01*
X283031D02*
Y606591D01*
X388531Y519631D02*
Y545631D01*
X283031D02*
X388531D01*
X283031Y519631D02*
X388531D01*
X283031D02*
Y545631D01*
X190321Y725371D02*
Y751371D01*
Y725371D02*
X295821D01*
X190321Y751371D02*
X295821D01*
Y725371D02*
Y751371D01*
X505281Y368501D02*
Y394501D01*
Y368501D02*
X610781D01*
X505281Y394501D02*
X610781D01*
Y368501D02*
Y394501D01*
X609511Y468831D02*
Y494831D01*
X504011D02*
X609511D01*
X504011Y468831D02*
X609511D01*
X504011D02*
Y494831D01*
X835571Y473911D02*
Y499911D01*
X730071D02*
X835571D01*
X730071Y473911D02*
X835571D01*
X730071D02*
Y499911D01*
X838111Y421841D02*
Y447841D01*
X732611D02*
X838111D01*
X732611Y421841D02*
X838111D01*
X732611D02*
Y447841D01*
X733881Y369771D02*
Y395771D01*
Y369771D02*
X839381D01*
X733881Y395771D02*
X839381D01*
Y369771D02*
Y395771D01*
X833031Y640281D02*
Y666281D01*
X727531D02*
X833031D01*
X727531Y640281D02*
X833031D01*
X727531D02*
Y666281D01*
Y525981D02*
Y551981D01*
Y525981D02*
X833031D01*
X727531Y551981D02*
X833031D01*
Y525981D02*
Y551981D01*
X209371Y223721D02*
Y249721D01*
Y223721D02*
X314871D01*
X209371Y249721D02*
X314871D01*
Y223721D02*
Y249721D01*
Y275791D02*
Y301791D01*
X209371D02*
X314871D01*
X209371Y275791D02*
X314871D01*
X209371D02*
Y301791D01*
Y172921D02*
Y198921D01*
Y172921D02*
X314871D01*
X209371Y198921D02*
X314871D01*
Y172921D02*
Y198921D01*
X206831Y122121D02*
Y148121D01*
Y122121D02*
X312331D01*
X206831Y148121D02*
X312331D01*
Y122121D02*
Y148121D01*
X178381Y365031D02*
Y471631D01*
Y365031D02*
X277281D01*
Y471631D01*
X178381D02*
X277281D01*
X178381Y537751D02*
Y644351D01*
Y537751D02*
X277281D01*
Y644351D01*
X178381D02*
X277281D01*
X78051Y720631D02*
Y827231D01*
Y720631D02*
X176951D01*
Y827231D01*
X78051D02*
X176951D01*
X616531Y533941D02*
Y640541D01*
Y533941D02*
X715431D01*
Y640541D01*
X616531D02*
X715431D01*
X334261Y168181D02*
X433161D01*
X334261D02*
Y274781D01*
X433161D01*
Y168181D02*
Y274781D01*
X562521Y724101D02*
Y750101D01*
X457021D02*
X562521D01*
X457021Y724101D02*
X562521D01*
X457021D02*
Y750101D01*
X563791Y788871D02*
Y814871D01*
X458291D02*
X563791D01*
X458291Y788871D02*
X563791D01*
X458291D02*
Y814871D01*
X604341Y819351D02*
Y845351D01*
Y819351D02*
X709841D01*
X604341Y845351D02*
X709841D01*
Y819351D02*
Y845351D01*
X344751Y828501D02*
X443651D01*
Y721901D02*
Y828501D01*
X344751Y721901D02*
X443651D01*
X344751D02*
Y828501D01*
M02*
