M48
;Layer_Color=9474304
;FILE_FORMAT=2:5
INCH,LZ
;TYPE=PLATED
T01F00S00C0.02756
T02F00S00C0.02874
T04F00S00C0.03346
T05F00S00C0.03425
T06F00S00C0.03543
T07F00S00C0.04134
T08F00S00C0.12598
;TYPE=NON_PLATED
T09F00S00C0.05118
%
T01
X0187697Y0067355
Y0077197
X0341697Y0078197
Y0068355
X0339697Y0099197
Y010904
X0341697Y0150197
Y016004
Y0181355
Y0191197
X0339197Y0217855
Y0227697
X0186697Y0229197
Y0219355
X0161697Y022254
Y0212697
X0163197Y0185697
Y0175855
X0163697Y0159697
Y0149855
X0188197Y0152855
Y0162697
Y0178697
Y018854
X0187697Y010704
Y0097197
X0016697Y0150197
Y016004
Y0176197
Y018604
X0015197Y0214697
Y022454
X0015697Y0252697
Y026254
X0162197Y025154
Y0241697
X0186697Y0246355
Y0256197
X0337697Y0252197
Y026204
T02
X0135437Y0072197
Y0082197
X0166697
Y0072197
X0248067Y0076697
Y0066697
X0279327
Y0076697
Y0086697
Y0096697
X0248067
Y0086697
X0246567Y0148197
Y0158197
Y0168197
Y0178197
X0277827
Y0168197
Y0158197
Y0148197
Y0216197
Y0226197
Y0236197
X0246567
Y0226197
Y0216197
X0166697Y0102197
Y0092197
X0135437
Y0102197
X0105327Y0149697
Y0159697
Y0169697
Y0179697
X0074067
Y0169697
Y0159697
Y0149697
Y0217697
Y0227697
Y0237697
X0105327
Y0227697
Y0217697
Y0247697
X0074067
X0065827Y0289697
Y0299697
Y0309697
Y0319697
X0034567
Y0309697
Y0299697
Y0289697
X0139567Y0290197
Y0300197
Y0310197
Y0320197
X0170827
Y0310197
Y0300197
Y0290197
X0239567Y0289197
Y0299197
Y0309197
Y0279197
X0270827
Y0289197
Y0299197
Y0309197
X0277827Y0246197
X0246567
T04
X0084481Y0053197
X0085481Y0073197
X0120914
X0119914Y0053197
X0200481Y0066197
X0235914
X0291481Y0068197
X0326914
X0325914Y0088197
X0326914Y0107697
X0327414Y0150697
X0326914Y0171197
X0325914Y0191697
X0324914Y0212197
Y0234197
X0289481
Y0212197
X0290481Y0191697
X0291481Y0171197
X0291981Y0150697
X0291481Y0107697
X0290481Y0088197
X0235914Y0086697
Y0106197
X0200481
Y0086697
X0201981Y0150197
X0201481Y0170697
Y0189697
X0199481Y0215197
X0202481Y0238697
X0237914
X0234914Y0215197
X0236914Y0189697
Y0170697
X0237414Y0150197
X0150914Y0148697
X0150414Y0167197
Y0185697
X0149914Y0209697
Y0233697
X0114481
Y0209697
X0114981Y0185697
Y0167197
X0115481Y0148697
X0120914Y0113697
Y0093197
X0085481
Y0113697
X0064414Y0149197
X006563Y0168697
X0065414Y0188197
X0064197Y0215197
X0065414Y0236197
X0029981
X0028764Y0215197
X0029981Y0188197
X0030197Y0168697
X0028981Y0149197
X0028481Y0256197
X0063914
X0077981Y0290697
X0076481Y0312197
X0111914
X0113414Y0290697
X0114981Y0253197
X0150414
X0201981Y0253697
X0237414
X0218414Y0290197
X0218914Y0315697
X0240981Y0327697
X0276414
X0293197Y0323414
X0307697Y0322914
Y0287481
X0293197Y0287981
X0289481Y0257197
X0182981Y0290197
X0183481Y0315697
X0323697Y0322914
X0339697Y0323414
X0355197Y0323914
Y0288481
X0339697Y0287981
X0323697Y0287481
X0324914Y0257197
T05
X0035697Y0363197
X0045697
X0055697
X0097697Y0364197
X0107697
X0117697
X0158697Y0364237
X0168697
X0178697
X0217697Y0366737
X0227697
X0237697
X0278697
X0288697
X0298697
X0337697Y0367197
X0347697
X0357697
T06
X0273485Y0034697
X0283327
X029317
X0303012
X0312855
X0322697
X0017697Y0311355
Y0321197
Y033104
T07
X0145355Y0021697
X0155197
T08
X0098697Y0017697
X0367014Y0018213
X0013197Y0369197
X0373176Y0339092
T09
X0139056Y0013823
M30
